# xmcd
#
# Track frame offsets:
#	150
#	14964
#	30465
#	44417
#	57913
#	75913
#	91040
#	109089
#	127569
#	146157
#	161540
#	176969
#	195598
#	214777
#	230664
#	247758
#	260808
#
# Disc length: 3789 seconds
#
# Revision: 8
# Processed by: cddbd v1.5.2PL0 Copyright (c) Steve Scherf et al.
# Submitted via: EasyCDDAExtractor 15.3.0.1
#
DISCID=e30ecb11
DTITLE=Christina Aguilera - Lotus (Deluxe Edition)
DYEAR=2012
DGENRE=Pop
TTITLE0=Lotus Intro
TTITLE1=Army Of Me
TTITLE2=Red Hot Kinda Love
TTITLE3=Make The World Move (Featuring Ceelo Green)
TTITLE4=Your Body
TTITLE5=Let There Be Love
TTITLE6=Sing For Me
TTITLE7=Blank Page
TTITLE8=Cease Fire
TTITLE9=Around The World
TTITLE10=Circles
TTITLE11=Best Of Me
TTITLE12=Just A Fool (With Blake Shelton)
TTITLE13=Light Up The Sky
TTITLE14=Empty Words
TTITLE15=Shut Up
TTITLE16=Your Body (Martin Garrix Remix)
EXTD=YEAR: 2012
EXTT0=
EXTT1=
EXTT2=
EXTT3=
EXTT4=
EXTT5=
EXTT6=
EXTT7=
EXTT8=
EXTT9=
EXTT10=
EXTT11=
EXTT12=
EXTT13=
EXTT14=
EXTT15=
EXTT16=
PLAYORDER=
